<svg xmlns="http://www.w3.org/2000/svg" xmlns:xlink="http://www.w3.org/1999/xlink" width="72" height="31" viewBox="0 0 72 31">
  <defs>
    <clipPath id="clip-path">
      <rect width="72" height="31" fill="none"/>
    </clipPath>
  </defs>
  <g id="share" clip-path="url(#clip-path)">
    <g id="icon" transform="translate(-448 -2229)">
      <rect id="Rectangle_50" data-name="Rectangle 50" width="31" height="31" rx="15.5" transform="translate(448 2229)" fill="#385c8e"/>
      <path id="facebook" d="M126.879,6.487h1.335v5.5a.2.2,0,0,0,.2.2h2.264a.2.2,0,0,0,.2-.2V6.513h1.535a.2.2,0,0,0,.2-.174l.233-2.024a.2.2,0,0,0-.2-.219h-1.768V2.828c0-.382.206-.576.612-.576h1.156a.2.2,0,0,0,.2-.2V.2a.2.2,0,0,0-.2-.2h-1.666a3.053,3.053,0,0,0-2,.752,2.093,2.093,0,0,0-.7,1.861V4.1h-1.4a.2.2,0,0,0-.2.2v2A.2.2,0,0,0,126.879,6.487Z" transform="translate(333.317 2239)" fill="#fff"/>
    </g>
    <g id="icon-2" data-name="icon" transform="translate(-447 -2229)">
      <rect id="Rectangle_51" data-name="Rectangle 51" width="31" height="31" rx="15.5" transform="translate(488 2229)" fill="#03a9f4"/>
      <path id="twitter" d="M11.78,49.133a5.035,5.035,0,0,1-1.392.381,2.4,2.4,0,0,0,1.062-1.335,4.826,4.826,0,0,1-1.531.585,2.415,2.415,0,0,0-4.178,1.651,2.487,2.487,0,0,0,.056.551A6.836,6.836,0,0,1,.82,48.44a2.416,2.416,0,0,0,.742,3.228,2.385,2.385,0,0,1-1.091-.3V51.4A2.426,2.426,0,0,0,2.406,53.77a2.411,2.411,0,0,1-.633.08,2.135,2.135,0,0,1-.457-.041,2.438,2.438,0,0,0,2.257,1.682,4.853,4.853,0,0,1-2.994,1.03A4.524,4.524,0,0,1,0,56.488a6.8,6.8,0,0,0,3.7,1.084A6.826,6.826,0,0,0,10.579,50.7c0-.107,0-.21-.009-.312A4.818,4.818,0,0,0,11.78,49.133Z" transform="translate(498.001 2192)" fill="#fff"/>
    </g>
  </g>
</svg>
